<svg xmlns="http://www.w3.org/2000/svg" width="960" viewBox="0 0 960 2060" font-family="'Segoe UI', system-ui, -apple-system, sans-serif">
<title>EngineLab development process</title>
<rect width="960" height="2060" fill="#ffffff"/>
<defs>
  <marker id="arr" viewBox="0 0 10 10" refX="8" refY="5" markerWidth="6" markerHeight="6" orient="auto-start-reverse">
    <path d="M2 1L8 5L2 9" fill="none" stroke="#9ca3af" stroke-width="1.5" stroke-linecap="round" stroke-linejoin="round"/>
  </marker>
  <marker id="arr-grn" viewBox="0 0 10 10" refX="8" refY="5" markerWidth="6" markerHeight="6" orient="auto-start-reverse">
    <path d="M2 1L8 5L2 9" fill="none" stroke="#16a34a" stroke-width="1.5" stroke-linecap="round" stroke-linejoin="round"/>
  </marker>
</defs>

<!-- PHASE 1 -->
<text x="480" y="28" text-anchor="middle" font-size="10" fill="#9ca3af" letter-spacing="2" font-weight="600">PHASE 1 — IDEATION</text>
<rect x="240" y="38" width="480" height="60" rx="9" fill="#ede9fe" stroke="#7c3aed" stroke-width="1.5"/>
<text x="480" y="63" text-anchor="middle" font-size="14" font-weight="700" fill="#4c1d95">Initial idea</text>
<text x="480" y="84" text-anchor="middle" font-size="12" fill="#5b21b6">Given any chess variant → build a framework to create an engine for it</text>

<!-- PHASE 2 -->
<line x1="480" y1="98" x2="480" y2="124" stroke="#9ca3af" stroke-width="1" marker-end="url(#arr)"/>
<text x="480" y="142" text-anchor="middle" font-size="10" fill="#9ca3af" letter-spacing="2" font-weight="600">PHASE 2 — LLM STRATEGY COUNCIL</text>
<rect x="36" y="150" width="888" height="276" rx="10" fill="#f9fafb" stroke="#d1d5db" stroke-width="1" stroke-dasharray="6 3"/>

<rect x="61"  y="166" width="154" height="52" rx="7" fill="#d1fae5" stroke="#059669" stroke-width="1"/>
<text x="138" y="188" text-anchor="middle" font-size="13" font-weight="700" fill="#064e3b">Claude</text>
<text x="138" y="207" text-anchor="middle" font-size="11" fill="#065f46">synthesis</text>

<rect x="229" y="166" width="154" height="52" rx="7" fill="#d1fae5" stroke="#059669" stroke-width="1"/>
<text x="306" y="188" text-anchor="middle" font-size="13" font-weight="700" fill="#064e3b">GPT-4o</text>
<text x="306" y="207" text-anchor="middle" font-size="11" fill="#065f46">architecture</text>

<rect x="397" y="166" width="154" height="52" rx="7" fill="#d1fae5" stroke="#059669" stroke-width="1"/>
<text x="474" y="188" text-anchor="middle" font-size="13" font-weight="700" fill="#064e3b">Gemini</text>
<text x="474" y="207" text-anchor="middle" font-size="11" fill="#065f46">literature</text>

<rect x="565" y="166" width="154" height="52" rx="7" fill="#d1fae5" stroke="#059669" stroke-width="1"/>
<text x="642" y="188" text-anchor="middle" font-size="13" font-weight="700" fill="#064e3b">DeepSeek</text>
<text x="642" y="207" text-anchor="middle" font-size="11" fill="#065f46">adversarial</text>

<rect x="733" y="166" width="154" height="52" rx="7" fill="#d1fae5" stroke="#059669" stroke-width="1"/>
<text x="810" y="188" text-anchor="middle" font-size="13" font-weight="700" fill="#064e3b">Perplexity</text>
<text x="810" y="207" text-anchor="middle" font-size="11" fill="#065f46">research</text>

<rect x="74"  y="232" width="262" height="52" rx="6" fill="#f3f4f6" stroke="#d1d5db" stroke-width="1"/>
<text x="205" y="254" text-anchor="middle" font-size="13" font-weight="600" fill="#111827">Round 1</text>
<text x="205" y="272" text-anchor="middle" font-size="11" fill="#6b7280">Each LLM proposes an approach</text>

<line x1="336" y1="258" x2="349" y2="258" stroke="#9ca3af" stroke-width="1" marker-end="url(#arr)"/>

<rect x="349" y="232" width="262" height="52" rx="6" fill="#f3f4f6" stroke="#d1d5db" stroke-width="1"/>
<text x="480" y="254" text-anchor="middle" font-size="13" font-weight="600" fill="#111827">Round 2</text>
<text x="480" y="272" text-anchor="middle" font-size="11" fill="#6b7280">Adversarial critique of consensus</text>

<line x1="611" y1="258" x2="624" y2="258" stroke="#9ca3af" stroke-width="1" marker-end="url(#arr)"/>

<rect x="624" y="232" width="262" height="52" rx="6" fill="#f3f4f6" stroke="#d1d5db" stroke-width="1"/>
<text x="755" y="254" text-anchor="middle" font-size="13" font-weight="600" fill="#111827">Round 3 — judge pass</text>
<text x="755" y="272" text-anchor="middle" font-size="11" fill="#6b7280">Neutral synthesis; accept if no failure mode raised</text>

<text x="480" y="312" text-anchor="middle" font-size="11" fill="#9ca3af">Hard cap: 3 rounds max · prevents infinite debate loops · accept if no concrete failure mode raised</text>

<rect x="74" y="326" width="812" height="52" rx="8" fill="#fef3c7" stroke="#d97706" stroke-width="1.5"/>
<text x="480" y="348" text-anchor="middle" font-size="13" font-weight="700" fill="#78350f">Council verdict: alpha-beta search</text>
<text x="480" y="366" text-anchor="middle" font-size="11" fill="#92400e">Neural nets infeasible given time limit — alpha-beta proven effective pre-ML (Shannon 1950, Knuth 1975)</text>

<!-- PHASE 3 -->
<line x1="480" y1="426" x2="480" y2="452" stroke="#9ca3af" stroke-width="1" marker-end="url(#arr)"/>
<text x="480" y="470" text-anchor="middle" font-size="10" fill="#9ca3af" letter-spacing="2" font-weight="600">PHASE 3 — FEATURE SELECTION DECISION</text>

<rect x="180" y="478" width="600" height="60" rx="9" fill="#ede9fe" stroke="#7c3aed" stroke-width="1.5"/>
<text x="480" y="502" text-anchor="middle" font-size="13" font-weight="700" fill="#4c1d95">How to select feature subsets to test?</text>
<text x="480" y="522" text-anchor="middle" font-size="11" fill="#5b21b6">2^n – 1 subsets grows exponentially · need a strategy that is both feasible and deterministic</text>

<path d="M 340 538 L 190 584" fill="none" stroke="#9ca3af" stroke-width="1" marker-end="url(#arr)"/>
<line x1="480" y1="538" x2="480" y2="584" stroke="#9ca3af" stroke-width="1" marker-end="url(#arr)"/>
<path d="M 620 538 L 770 584" fill="none" stroke="#9ca3af" stroke-width="1" marker-end="url(#arr)"/>

<rect x="60" y="586" width="250" height="82" rx="8" fill="#fee2e2" stroke="#dc2626" stroke-width="1.5"/>
<text x="185" y="610" text-anchor="middle" font-size="13" font-weight="700" fill="#7f1d1d">Option A — exhaustive</text>
<text x="185" y="630" text-anchor="middle" font-size="11" fill="#991b1b">All 2^10 – 1 = 1,023 agents</text>
<text x="185" y="648" text-anchor="middle" font-size="11" fill="#991b1b">Too many games · compute infeasible</text>
<text x="185" y="666" text-anchor="middle" font-size="11" font-weight="700" fill="#dc2626">x  rejected</text>

<rect x="355" y="586" width="250" height="82" rx="8" fill="#fee2e2" stroke="#dc2626" stroke-width="1.5"/>
<text x="480" y="610" text-anchor="middle" font-size="13" font-weight="700" fill="#7f1d1d">Option B — random sample</text>
<text x="480" y="630" text-anchor="middle" font-size="11" fill="#991b1b">Cap at ~100 random subsets</text>
<text x="480" y="648" text-anchor="middle" font-size="11" fill="#991b1b">Non-deterministic · biased coverage</text>
<text x="480" y="666" text-anchor="middle" font-size="11" font-weight="700" fill="#dc2626">x  rejected</text>

<rect x="650" y="586" width="250" height="82" rx="8" fill="#dcfce7" stroke="#16a34a" stroke-width="1.5"/>
<text x="775" y="608" text-anchor="middle" font-size="13" font-weight="700" fill="#14532d">Option C — choose 7 directly  (chosen)</text>
<text x="775" y="628" text-anchor="middle" font-size="11" fill="#166534">Council votes on the 7 best features</text>
<text x="775" y="646" text-anchor="middle" font-size="11" fill="#166534">2^7 – 1 = 127 agents · exhaustive</text>
<text x="775" y="664" text-anchor="middle" font-size="11" fill="#166534">Deterministic · compute-feasible</text>

<path d="M 775 668 L 775 704 L 480 704" fill="none" stroke="#16a34a" stroke-width="1"/>
<line x1="480" y1="704" x2="480" y2="720" stroke="#16a34a" stroke-width="1" marker-end="url(#arr-grn)"/>

<rect x="120" y="722" width="720" height="52" rx="8" fill="#dcfce7" stroke="#16a34a" stroke-width="1.5"/>
<text x="480" y="746" text-anchor="middle" font-size="13" font-weight="700" fill="#14532d">Chosen: team directly selects the 7 best features</text>
<text x="480" y="764" text-anchor="middle" font-size="11" fill="#166534">Council agreement on which 7 features matter most → 127 subsets · fully exhaustive · deterministic · feasible</text>

<!-- PHASE 4 -->
<line x1="480" y1="774" x2="480" y2="800" stroke="#9ca3af" stroke-width="1" marker-end="url(#arr)"/>
<text x="480" y="818" text-anchor="middle" font-size="10" fill="#9ca3af" letter-spacing="2" font-weight="600">PHASE 4 — SPECIFICATION SPRINT</text>

<rect x="36" y="826" width="888" height="204" rx="10" fill="#f9fafb" stroke="#d1d5db" stroke-width="1" stroke-dasharray="6 3"/>

<rect x="68"  y="844" width="264" height="72" rx="7" fill="#f3f4f6" stroke="#d1d5db" stroke-width="1"/>
<text x="200" y="868" text-anchor="middle" font-size="13" font-weight="600" fill="#111827">Shared interfaces locked</text>
<text x="200" y="888" text-anchor="middle" font-size="11" fill="#6b7280">Board, Move, GameResult signatures</text>
<text x="200" y="906" text-anchor="middle" font-size="11" fill="#6b7280">Changes require explicit approval</text>

<rect x="348" y="844" width="264" height="72" rx="7" fill="#f3f4f6" stroke="#d1d5db" stroke-width="1"/>
<text x="480" y="868" text-anchor="middle" font-size="13" font-weight="600" fill="#111827">Feature taxonomy fixed</text>
<text x="480" y="888" text-anchor="middle" font-size="11" fill="#6b7280">7 features chosen by council</text>
<text x="480" y="906" text-anchor="middle" font-size="11" fill="#6b7280">127 subsets enumerated by code</text>

<rect x="628" y="844" width="264" height="72" rx="7" fill="#f3f4f6" stroke="#d1d5db" stroke-width="1"/>
<text x="760" y="868" text-anchor="middle" font-size="13" font-weight="600" fill="#111827">Ownership map</text>
<text x="760" y="888" text-anchor="middle" font-size="11" fill="#6b7280">Foundation → Engine → Harness</text>
<text x="760" y="906" text-anchor="middle" font-size="11" fill="#6b7280">No file overlap between tracks</text>

<rect x="68" y="932" width="824" height="52" rx="6" fill="#f3f4f6" stroke="#d1d5db" stroke-width="1"/>
<text x="480" y="954" text-anchor="middle" font-size="13" font-weight="600" fill="#111827">Pipeline defined</text>
<text x="480" y="972" text-anchor="middle" font-size="11" fill="#6b7280">7 features → 127 subset agents → alpha-beta tournament → marginal analysis → strategy report</text>

<text x="480" y="1012" text-anchor="middle" font-size="11" fill="#9ca3af">Human checkpoint: plan approved before any code written · interfaces locked</text>

<!-- PHASE 5 -->
<line x1="480" y1="1026" x2="480" y2="1052" stroke="#9ca3af" stroke-width="1" marker-end="url(#arr)"/>
<text x="480" y="1070" text-anchor="middle" font-size="10" fill="#9ca3af" letter-spacing="2" font-weight="600">PHASE 5 — PARALLEL EXECUTION</text>

<rect x="60" y="1078" width="840" height="60" rx="8" fill="#f3f4f6" stroke="#6b7280" stroke-width="1.5"/>
<text x="480" y="1103" text-anchor="middle" font-size="13" font-weight="700" fill="#111827">Foundation — Person 1, committed to main first</text>
<text x="480" y="1122" text-anchor="middle" font-size="11" fill="#6b7280">Board · Move · move gen · castling · en passant · check detection · standard variant · stubs for all modules</text>

<path d="M 210 1138 L 160 1174" fill="none" stroke="#9ca3af" stroke-width="1" marker-end="url(#arr)"/>
<line x1="480" y1="1138" x2="480" y2="1174" stroke="#9ca3af" stroke-width="1" marker-end="url(#arr)"/>
<path d="M 750 1138 L 800 1174" fill="none" stroke="#9ca3af" stroke-width="1" marker-end="url(#arr)"/>

<text x="480" y="1168" text-anchor="middle" font-size="11" fill="#9ca3af">branch from main → three parallel tracks with zero shared mutable files</text>

<!-- Track A: x=36 w=268 -->
<rect x="36"  y="1178" width="268" height="292" rx="10" fill="#fff7ed" stroke="#f97316" stroke-width="1" stroke-dasharray="5 3"/>
<text x="170" y="1197" text-anchor="middle" font-size="10" fill="#c2410c" font-weight="700" letter-spacing="1.5">AREA-1-ENGINE</text>
<rect x="52"  y="1204" width="236" height="52" rx="6" fill="#fed7aa" stroke="#ea580c" stroke-width="1"/>
<text x="170" y="1226" text-anchor="middle" font-size="13" font-weight="700" fill="#7c2d12">Person 2 — Engine</text>
<text x="170" y="1244" text-anchor="middle" font-size="11" fill="#9a3412">Claude Code</text>
<rect x="52"  y="1266" width="236" height="32" rx="5" fill="#f9fafb" stroke="#e5e7eb" stroke-width="1"/>
<text x="170" y="1287" text-anchor="middle" font-size="11" fill="#374151">Atomic + antichess variants</text>
<rect x="52"  y="1306" width="236" height="32" rx="5" fill="#f9fafb" stroke="#e5e7eb" stroke-width="1"/>
<text x="170" y="1327" text-anchor="middle" font-size="11" fill="#374151">7 evaluation feature functions</text>
<rect x="52"  y="1346" width="236" height="32" rx="5" fill="#f9fafb" stroke="#e5e7eb" stroke-width="1"/>
<text x="170" y="1367" text-anchor="middle" font-size="11" fill="#374151">127-agent subset generation</text>
<rect x="52"  y="1386" width="236" height="32" rx="5" fill="#f9fafb" stroke="#e5e7eb" stroke-width="1"/>
<text x="170" y="1407" text-anchor="middle" font-size="11" fill="#374151">Alpha-beta search engine</text>
<rect x="52"  y="1426" width="236" height="32" rx="5" fill="#f9fafb" stroke="#e5e7eb" stroke-width="1"/>
<text x="170" y="1447" text-anchor="middle" font-size="11" fill="#374151">Tests: test_atomic, test_features…</text>

<!-- Track B: x=346 w=268 -->
<rect x="346" y="1178" width="268" height="292" rx="10" fill="#fff7ed" stroke="#f97316" stroke-width="1" stroke-dasharray="5 3"/>
<text x="480" y="1197" text-anchor="middle" font-size="10" fill="#c2410c" font-weight="700" letter-spacing="1.5">AREA-2-HARNESS</text>
<rect x="362" y="1204" width="236" height="52" rx="6" fill="#fed7aa" stroke="#ea580c" stroke-width="1"/>
<text x="480" y="1226" text-anchor="middle" font-size="13" font-weight="700" fill="#7c2d12">Person 3 — Harness</text>
<text x="480" y="1244" text-anchor="middle" font-size="11" fill="#9a3412">Claude Code</text>
<rect x="362" y="1266" width="236" height="32" rx="5" fill="#f9fafb" stroke="#e5e7eb" stroke-width="1"/>
<text x="480" y="1287" text-anchor="middle" font-size="11" fill="#374151">mock_play_game() for isolation</text>
<rect x="362" y="1306" width="236" height="32" rx="5" fill="#f9fafb" stroke="#e5e7eb" stroke-width="1"/>
<text x="480" y="1327" text-anchor="middle" font-size="11" fill="#374151">Tournament + leaderboard</text>
<rect x="362" y="1346" width="236" height="32" rx="5" fill="#f9fafb" stroke="#e5e7eb" stroke-width="1"/>
<text x="480" y="1367" text-anchor="middle" font-size="11" fill="#374151">Marginals + synergy analysis</text>
<rect x="362" y="1386" width="236" height="32" rx="5" fill="#f9fafb" stroke="#e5e7eb" stroke-width="1"/>
<text x="480" y="1407" text-anchor="middle" font-size="11" fill="#374151">CLI + report generation</text>
<rect x="362" y="1426" width="236" height="32" rx="5" fill="#f9fafb" stroke="#e5e7eb" stroke-width="1"/>
<text x="480" y="1447" text-anchor="middle" font-size="11" fill="#374151">Tests: test_tournament, test_analysis…</text>

<!-- Track C: x=656 w=268 -->
<rect x="656" y="1178" width="268" height="292" rx="10" fill="#fff7ed" stroke="#f97316" stroke-width="1" stroke-dasharray="5 3"/>
<text x="790" y="1197" text-anchor="middle" font-size="10" fill="#c2410c" font-weight="700" letter-spacing="1.5">UI-STREAMLIT</text>
<rect x="672" y="1204" width="236" height="52" rx="6" fill="#fed7aa" stroke="#ea580c" stroke-width="1"/>
<text x="790" y="1226" text-anchor="middle" font-size="13" font-weight="700" fill="#7c2d12">Persons 4–5 — UI</text>
<text x="790" y="1244" text-anchor="middle" font-size="11" fill="#9a3412">Claude + Streamlit spec</text>
<rect x="672" y="1266" width="236" height="32" rx="5" fill="#f9fafb" stroke="#e5e7eb" stroke-width="1"/>
<text x="790" y="1287" text-anchor="middle" font-size="11" fill="#374151">Sidebar + session state</text>
<rect x="672" y="1306" width="236" height="32" rx="5" fill="#f9fafb" stroke="#e5e7eb" stroke-width="1"/>
<text x="790" y="1327" text-anchor="middle" font-size="11" fill="#374151">Charts, heatmap, board view</text>
<rect x="672" y="1346" width="236" height="32" rx="5" fill="#f9fafb" stroke="#e5e7eb" stroke-width="1"/>
<text x="790" y="1367" text-anchor="middle" font-size="11" fill="#374151">5-page Streamlit app</text>
<rect x="672" y="1386" width="236" height="32" rx="5" fill="#f9fafb" stroke="#e5e7eb" stroke-width="1"/>
<text x="790" y="1407" text-anchor="middle" font-size="11" fill="#374151">Mock data during development</text>
<rect x="672" y="1426" width="236" height="32" rx="5" fill="#f9fafb" stroke="#e5e7eb" stroke-width="1"/>
<text x="790" y="1447" text-anchor="middle" font-size="11" fill="#374151">Tests: test_tournament, test_analysis…</text>

<text x="480" y="1494" text-anchor="middle" font-size="11" fill="#9ca3af">CI runs on every push · Area 2 uses mock_play_game() — zero dependency on Area 1 progress</text>
<text x="480" y="1510" text-anchor="middle" font-size="11" fill="#9ca3af">Testers validate against each track while implementation continues in parallel</text>

<!-- PHASE 6 -->
<path d="M 170 1470 L 336 1530" fill="none" stroke="#9ca3af" stroke-width="1" marker-end="url(#arr)"/>
<line x1="480" y1="1470" x2="480" y2="1530" stroke="#9ca3af" stroke-width="1" marker-end="url(#arr)"/>
<path d="M 790 1470 L 624 1530" fill="none" stroke="#9ca3af" stroke-width="1" marker-end="url(#arr)"/>

<text x="480" y="1524" text-anchor="middle" font-size="10" fill="#9ca3af" letter-spacing="2" font-weight="600">PHASE 6 — INTEGRATION</text>

<rect x="60" y="1532" width="840" height="68" rx="8" fill="#dcfce7" stroke="#16a34a" stroke-width="1.5"/>
<text x="480" y="1558" text-anchor="middle" font-size="13" font-weight="700" fill="#14532d">Integration merge</text>
<text x="480" y="1578" text-anchor="middle" font-size="11" fill="#166534">Area 1 → main first · Area 2 rebases and swaps mock_play_game → play_game (one-line change)</text>
<text x="480" y="1594" text-anchor="middle" font-size="11" fill="#166534">UI wires to real results · all pytest suites pass · human checkpoint before merge</text>

<line x1="480" y1="1600" x2="480" y2="1626" stroke="#9ca3af" stroke-width="1" marker-end="url(#arr)"/>

<rect x="60" y="1628" width="840" height="60" rx="8" fill="#f3f4f6" stroke="#6b7280" stroke-width="1.5"/>
<text x="480" y="1652" text-anchor="middle" font-size="13" font-weight="700" fill="#111827">Tournament game parallelism</text>
<text x="480" y="1672" text-anchor="middle" font-size="11" fill="#6b7280">127 agents → 16,002 games · independent pairs run via multiprocessing</text>
<text x="480" y="1688" text-anchor="middle" font-size="11" fill="#9ca3af">per-game seed = tournament_seed + game_index · fully deterministic</text>

<!-- PHASE 7 -->
<line x1="480" y1="1688" x2="480" y2="1714" stroke="#9ca3af" stroke-width="1" marker-end="url(#arr)"/>
<text x="480" y="1732" text-anchor="middle" font-size="10" fill="#9ca3af" letter-spacing="2" font-weight="600">PHASE 7 — TESTING AND ITERATION</text>

<rect x="36" y="1740" width="888" height="184" rx="10" fill="#f9fafb" stroke="#d1d5db" stroke-width="1" stroke-dasharray="6 3"/>

<rect x="68"  y="1758" width="264" height="60" rx="7" fill="#f3f4f6" stroke="#d1d5db" stroke-width="1"/>
<text x="200" y="1780" text-anchor="middle" font-size="13" font-weight="600" fill="#111827">Checkpoint A</text>
<text x="200" y="1800" text-anchor="middle" font-size="11" fill="#6b7280">Plan approved before any code</text>

<rect x="348" y="1758" width="264" height="60" rx="7" fill="#f3f4f6" stroke="#d1d5db" stroke-width="1"/>
<text x="480" y="1780" text-anchor="middle" font-size="13" font-weight="600" fill="#111827">Checkpoint B</text>
<text x="480" y="1800" text-anchor="middle" font-size="11" fill="#6b7280">Implementation reviewed pre-merge</text>

<rect x="628" y="1758" width="264" height="60" rx="7" fill="#f3f4f6" stroke="#d1d5db" stroke-width="1"/>
<text x="760" y="1780" text-anchor="middle" font-size="13" font-weight="600" fill="#111827">Checkpoint C</text>
<text x="760" y="1800" text-anchor="middle" font-size="11" fill="#6b7280">Variant winner selected</text>

<rect x="68" y="1834" width="824" height="44" rx="6" fill="#f3f4f6" stroke="#d1d5db" stroke-width="1"/>
<text x="480" y="1854" text-anchor="middle" font-size="13" font-weight="600" fill="#111827">Continuous testing</text>
<text x="480" y="1872" text-anchor="middle" font-size="11" fill="#6b7280">Dedicated testers run the full pipeline while engineers fix bugs and add features in parallel</text>

<text x="480" y="1908" text-anchor="middle" font-size="11" fill="#9ca3af">Same seed → identical leaderboard on any run · results are fully reproducible</text>

<!-- FINAL OUTPUT -->
<line x1="480" y1="1924" x2="480" y2="1950" stroke="#9ca3af" stroke-width="1" marker-end="url(#arr)"/>

<rect x="140" y="1952" width="680" height="76" rx="9" fill="#ede9fe" stroke="#7c3aed" stroke-width="1.5"/>
<text x="480" y="1978" text-anchor="middle" font-size="14" font-weight="700" fill="#4c1d95">Final output</text>
<text x="480" y="1998" text-anchor="middle" font-size="11" fill="#5b21b6">Leaderboard · marginal contributions · pairwise synergy matrix · strategy report</text>
<text x="480" y="2018" text-anchor="middle" font-size="11" fill="#6d28d9">Cross-variant comparison shows different feature rankings per variant — the core finding</text>

</svg>
